<?xml version="1.0" encoding="UTF-8"?>
<svg id="Calque_1" data-name="Calque 1" xmlns="http://www.w3.org/2000/svg" viewBox="0 0 500 500">
  <defs>
    <style>
      .cls-1 {
        fill: #45bedc;
      }

      .cls-2, .cls-3 {
        fill: #e62258;
      }

      .cls-3 {
        font-family: Poppins-Bold, Poppins;
        font-size: 40.93px;
        font-weight: 700;
      }
    </style>
  </defs>
  <path class="cls-2" d="m138.45,56.88l131.78.37c3.41-.05,7.63.02,12.45.4,1.44.12,6.59.55,13.31,1.75,6.92,1.23,11.97,2.64,13.04,2.94,2.51.71,6.57,1.94,11.45,3.83,1.48.57,4.1,1.62,7.31,3.1,3.86,1.77,6.74,3.32,8.67,4.37.82.44,2.78,1.51,5.28,2.98,2.84,1.66,5.25,3.18,7.18,4.43-11.71,17.2-23.43,34.41-35.14,51.61,0,0-16.47-17.57-46.12-19.4l-63.69-1.1.37,68.82,75.77.73-32.21,50.51-44.29.73v62.96l-40.63,60.4-24.52.37V56.88Z"/>
  <path class="cls-1" d="m324.13,139.61l35.87-52.34c-.87-.32,20.57,12.34,36.24,48.68,15.58,36.15,12.08,89.68,9.52,107.62-2.56,17.94-23.43,102.13-113.84,114.57h-115.3l36.6-54.91,70.28-.73s46.12-1.1,58.57-66.62c1.9-17.82,1.2-32.61.09-43.19-1.08-10.3-2.2-20.29-7.05-32.58-3.53-8.95-7.75-15.85-10.98-20.5Z"/>
  <text class="cls-3" transform="translate(133.26 405.66)"><tspan x="0" y="0">Fama DIALLO</tspan></text>
</svg>